<?xml version="1.0" encoding="UTF-8"?>
<!DOCTYPE svg PUBLIC "-//W3C//DTD SVG 1.1//EN" "http://www.w3.org/Graphics/SVG/1.1/DTD/svg11.dtd">
<svg xmlns="http://www.w3.org/2000/svg" xmlns:xlink="http://www.w3.org/1999/xlink">
    <symbol id="1" viewBox="0 0 50 50">
        <g id="1">
            <path stroke="none" fill="#594b35" d="M10.2 6.15 Q16.5 1.1 24.95 1.1 33.55 1.1 39.95 6.35 L41.8 8.05 Q46.3 12.55 47.9 18.25 L48.55 21.15 48.05 19.1 43.35 19.1 35.7 34.7 27.7 21.95 27.7 12.15 35.6 12.15 35.6 14.95 41.65 14.95 41.65 8.1 Q40.55 7.4 39.4 6.15 L10.2 6.15 M48.75 22.75 L48.8 24.95 Q48.8 34.85 41.8 41.8 39.25 44.35 36.35 45.95 L48.75 22.75 M35.8 46.25 Q30.9 48.8 24.95 48.8 18.75 48.8 13.7 46.05 L24.95 27.75 35.8 46.25 M13.1 45.75 Q10.4 44.15 8.05 41.8 4.45 38.2 2.75 33.85 1.1 29.75 1.1 24.95 L1.2 22.85 13.1 45.75 M1.25 22.5 Q1.4 20.3 2 18.25 3.6 12.55 8.05 8.05 L8.8 7.35 7.9 8.25 7.9 14.95 13.95 14.95 13.95 12.15 21.65 12.15 21.65 22.2 14.1 34.7 6.9 19.1 1.8 19.1 1.25 22.5"/>
            <path stroke="none" fill="#ffffff" d="M1.25 22.5 L1.8 19.1 6.9 19.1 14.1 34.7 21.65 22.2 21.65 12.15 13.95 12.15 13.95 14.95 7.9 14.95 7.9 8.25 8.8 7.35 9.55 6.55 9.95 6.15 10.2 6.15 39.4 6.15 Q40.55 7.4 41.65 8.1 L41.65 14.95 35.6 14.95 35.6 12.15 27.7 12.15 27.7 21.95 35.7 34.7 43.35 19.1 48.05 19.1 48.55 21.15 48.85 22.5 48.75 22.75 36.35 45.95 36 46.6 35.8 46.25 24.95 27.75 13.7 46.05 13.45 46.4 13.1 45.75 1.2 22.85 1.15 22.75 1.25 22.5"/>
            <path fill="none" stroke="#594b35" stroke-width="1" stroke-linecap="round" stroke-linejoin="round" d="M41.9 41.9 Q34.9 48.95 25 48.95 15.1 48.95 8.1 41.9 1.1 34.9 1.1 25 1.1 15.1 8.1 8.1 15.1 1.1 25 1.1 34.9 1.1 41.9 8.1 48.95 15.1 48.95 25 48.95 34.9 41.9 41.9"/>
        </g>
    </symbol>
    <symbol id="10" viewBox="0 0 50 50">
        <g id="10">
            <path fill="none" stroke="#594b35" stroke-width="1" stroke-linecap="round" stroke-linejoin="round" d="M41.8 7.9 Q48.85 14.9 48.85 24.8 48.85 34.7 41.8 41.7 34.8 48.75 24.9 48.75 15 48.75 8 41.7 1 34.7 1 24.8 1 14.9 8 7.9 15 0.9 24.9 0.9 34.8 0.9 41.8 7.9"/>
            <path fill="none" stroke="#594b35" stroke-width="1" stroke-linecap="round" stroke-linejoin="round" d="M17.85 3.75 L31.15 3.75 M20.25 45.25 L31.55 45.25 M17.2 24.15 L32.9 24.15 M20.25 31.85 L30.8 31.85 M19.65 15.6 L30.95 15.6"/>
            <path fill="none" stroke="#594b35" stroke-width="2" stroke-linecap="round" stroke-linejoin="round" d="M33.85 3.2 Q-0.15 21 33.6 46.45"/>
            <path fill="none" stroke="#594b35" stroke-width="1.5" stroke-linecap="round" stroke-linejoin="round" d="M15.2 3.15 Q51.45 21.3 17.35 46.95"/>
            <path stroke="none" fill="#594b35" d="M20.75 17.55 Q19.95 18.4 18.8 18.4 17.65 18.4 16.8 17.55 16 16.75 16 15.6 16 14.45 16.8 13.6 17.65 12.8 18.8 12.8 19.95 12.8 20.75 13.6 21.6 14.45 21.6 15.6 21.6 16.75 20.75 17.55"/>
            <path stroke="none" fill="#594b35" d="M31.05 13.2 Q32.2 13.2 33 14 33.85 14.85 33.85 16 33.85 17.15 33 17.95 32.2 18.8 31.05 18.8 29.9 18.8 29.05 17.95 28.25 17.15 28.25 16 28.25 14.85 29.05 14 29.9 13.2 31.05 13.2"/>
            <path stroke="none" fill="#594b35" d="M16.25 26.55 Q15.1 26.55 14.25 25.7 13.45 24.9 13.45 23.75 13.45 22.6 14.25 21.75 15.1 20.95 16.25 20.95 17.4 20.95 18.2 21.75 19.05 22.6 19.05 23.75 19.05 24.9 18.2 25.7 17.4 26.55 16.25 26.55"/>
            <path stroke="none" fill="#594b35" d="M35.8 26.3 Q35 27.15 33.85 27.15 32.7 27.15 31.85 26.3 31.05 25.5 31.05 24.35 31.05 23.2 31.85 22.35 32.7 21.55 33.85 21.55 35 21.55 35.8 22.35 36.65 23.2 36.65 24.35 36.65 25.5 35.8 26.3"/>
            <path stroke="none" fill="#594b35" d="M20.75 33.5 Q19.95 34.35 18.8 34.35 17.65 34.35 16.8 33.5 16 32.7 16 31.55 16 30.4 16.8 29.55 17.65 28.75 18.8 28.75 19.95 28.75 20.75 29.55 21.6 30.4 21.6 31.55 21.6 32.7 20.75 33.5"/>
            <path stroke="none" fill="#594b35" d="M31.05 29.55 Q32.2 29.55 33 30.35 33.85 31.2 33.85 32.35 33.85 33.5 33 34.3 32.2 35.15 31.05 35.15 29.9 35.15 29.05 34.3 28.25 33.5 28.25 32.35 28.25 31.2 29.05 30.35 29.9 29.55 31.05 29.55"/>
            <path stroke="none" fill="#594b35" d="M28.25 39.15 Q28.25 40.3 27.4 41.1 26.6 41.95 25.45 41.95 24.3 41.95 23.45 41.1 22.65 40.3 22.65 39.15 22.65 38 23.45 37.15 24.3 36.35 25.45 36.35 26.6 36.35 27.4 37.15 28.25 38 28.25 39.15"/>
            <path stroke="none" fill="#594b35" d="M17.05 47.4 Q16.25 46.6 16.25 45.45 16.25 44.3 17.05 43.45 17.9 42.65 19.05 42.65 20.2 42.65 21 43.45 21.85 44.3 21.85 45.45 21.85 46.6 21 47.4 20.2 48.25 19.05 48.25 17.9 48.25 17.05 47.4"/>
            <path stroke="none" fill="#594b35" d="M35.45 45.05 Q35.45 46.2 34.6 47 33.8 47.85 32.65 47.85 31.5 47.85 30.65 47 29.85 46.2 29.85 45.05 29.85 43.9 30.65 43.05 31.5 42.25 32.65 42.25 33.8 42.25 34.6 43.05 35.45 43.9 35.45 45.05"/>
            <path stroke="none" fill="#594b35" d="M27.2 8.65 Q27.2 9.8 26.35 10.6 25.55 11.45 24.4 11.45 23.25 11.45 22.4 10.6 21.6 9.8 21.6 8.65 21.6 7.5 22.4 6.65 23.25 5.85 24.4 5.85 25.55 5.85 26.35 6.65 27.2 7.5 27.2 8.65"/>
            <path stroke="none" fill="#594b35" d="M16.8 7.5 Q15.65 7.5 14.8 6.65 14 5.85 14 4.7 14 3.55 14.8 2.7 15.65 1.9 16.8 1.9 17.95 1.9 18.75 2.7 19.6 3.55 19.6 4.7 19.6 5.85 18.75 6.65 17.95 7.5 16.8 7.5"/>
            <path stroke="none" fill="#594b35" d="M32.85 7.5 Q31.7 7.5 30.85 6.65 30.05 5.85 30.05 4.7 30.05 3.55 30.85 2.7 31.7 1.9 32.85 1.9 34 1.9 34.8 2.7 35.65 3.55 35.65 4.7 35.65 5.85 34.8 6.65 34 7.5 32.85 7.5"/>
        </g>
    </symbol>
    <symbol id="11" viewBox="0 0 50 50">
        <g id="11">
            <path stroke="none" fill="#594b35" d="M38 36.75 L38.65 37.5 Q37.95 38.1 37.15 39.05 32.75 44.1 32.7 45.45 31.55 45.1 30.6 44.15 29.05 42.6 29.05 40.45 29.05 38.3 30.6 36.75 32.15 35.2 34.3 35.2 36.45 35.2 38 36.75"/>
            <path fill="none" stroke="#594b35" stroke-width="1" stroke-linecap="round" stroke-linejoin="round" d="M28.2 28.45 L20.55 36.1 M23.3 20.75 L8.3 35.7 M24.8 23.4 L9.8 38.35 M26.4 26.25 L11.4 41.2 M21.55 18.4 L6.55 33.35 M19.8 15.9 L4.8 30.85"/>
            <path fill="none" stroke="#594b35" stroke-width="1" stroke-linecap="round" stroke-linejoin="round" d="M1.95 17.35 Q10.95 -4.05 24.3 16.35 37.65 36.7 40.9 33.65 L41.15 33.45 Q44.25 30.7 46.35 33.35 M41.15 33.45 Q31.1 48.85 27.05 48.7"/>
            <path fill="none" stroke="#594b35" stroke-width="1" stroke-linecap="round" stroke-linejoin="round" d="M41.65 41.7 Q34.65 48.75 24.75 48.75 14.85 48.75 7.85 41.7 0.85 34.7 0.85 24.8 0.85 14.9 7.85 7.9 14.85 0.9 24.75 0.9 34.65 0.9 41.65 7.9 48.7 14.9 48.7 24.8 48.7 34.7 41.65 41.7"/>
            <path stroke="none" fill="#594b35" d="M43.45 31.9 Q41.55 32.1 41.05 33.1 L40.25 34.4 Q36.45 35.25 24.3 16.75 10.95 -3.65 1.95 17.75 3.6 12.45 7.85 8.25 14.8 1.3 24.6 1.3 34.45 1.3 41.4 8.25 48.35 15.2 48.35 25.05 48.35 29.7 46.8 33.75 L46.05 32.7 Q45.35 31.7 43.45 31.9"/>
        </g>
    </symbol>
    <symbol id="12" viewBox="0 0 50 50">
        <g id="12">
            <path fill="none" stroke="#594b35" stroke-width="1" stroke-linecap="round" stroke-linejoin="round" d="M2.1 17.45 Q11.1 -3.95 24.45 16.45 37.8 36.8 41.05 33.75 L41.3 33.55 Q44.4 30.8 46.5 33.45 M41.3 33.55 Q31.25 48.95 27.2 48.8"/>
            <path fill="none" stroke="#594b35" stroke-width="1" stroke-linecap="round" stroke-linejoin="round" d="M41.8 8 Q48.85 15 48.85 24.9 48.85 34.8 41.8 41.8 34.8 48.85 24.9 48.85 15 48.85 8 41.8 1 34.8 1 24.9 1 15 8 8 15 1 24.9 1 34.8 1 41.8 8"/>
            <path stroke="none" fill="#594b35" d="M24.75 1.4 Q34.6 1.4 41.55 8.35 48.5 15.3 48.5 25.15 48.5 29.8 46.95 33.85 L46.2 32.8 Q45.5 31.8 43.6 32 41.7 32.2 41.2 33.2 L40.4 34.5 Q36.6 35.35 24.45 16.85 11.1 -3.55 2.1 17.85 3.75 12.55 8 8.35 14.95 1.4 24.75 1.4"/>
            <path stroke="none" fill="#ffffff" d="M38.4 4.95 Q40.7 5.2 41.8 6.6 42.85 8.05 42.25 10.1 41.65 12.15 39.4 15.05 L26.95 31.6 24.1 35.35 23.7 35.2 20.1 34.85 17.95 35.3 17 29.4 31.8 10.45 33.8 7.5 Q36.05 4.7 38.4 4.95"/>
            <path fill="none" stroke="#594b35" stroke-width="1" stroke-linecap="round" stroke-linejoin="round" d="M17.8 35.4 L16.9 29.8 34 7.1 34.4 6.55 34.85 6 Q36.3 4.75 38.2 4.9 40.1 5.05 41.35 6.45 42.55 7.9 42.45 9.8 L41.95 11.65 41 12.9 24.95 34.7 18.75 35.45 M41 12.9 L40.9 12.95 Q39.45 14.25 37.55 14.1 35.8 13.95 34.65 12.8 L16.55 37.9 23.45 37.45 M20 32.15 L19.4 27.1 M13.3 42.3 L16.55 37.9"/>
        </g>
    </symbol>
    <symbol id="13" viewBox="0 0 50 50">
        <g id="13">
            <path fill="none" stroke="#594b35" stroke-width="1" stroke-linecap="round" stroke-linejoin="round" d="M8.45 7.7 L37.1 7.7 37.85 12.6 Q38.5 18.65 38 24.2 37.45 30.05 35.75 34.7 32.25 44.15 23.85 48.45 M27.3 9.45 Q25.95 10.25 27.3 12 L27.75 12.45 Q29.3 13.95 30.15 17.05 30.95 20.1 29.5 23.8 L31.2 24 31.9 26.5 35.4 26.45 35.45 26.4 33.45 23.35 M10.7 18.85 Q14.65 18.2 20.45 21.9 L26.7 12.85 26.25 12.35 M27.3 12 L26.7 12.85 Q27.95 14.35 28.65 16.95 29.45 20.05 28 23.7 L29.5 23.8 M3.8 13.2 L4.7 14.85 Q8.05 15.1 10.55 18.6 M28.65 29.05 Q30.15 29.05 31.3 27.95 L31.9 26.5 20.3 26.6 21.2 26.95 21.2 27.6 26.95 28.7 28.65 29.05 Q30.95 36.55 22.3 42.65 L22 41.7 20.7 42.65 M20.45 21.9 Q22.25 23.05 25.8 24.6 25.5 23.7 28 23.7 M11.7 29.35 Q11.5 28.3 13.2 27.05 13.4 26.2 13.9 26 L14.55 25.8 14.85 25.6 Q10 25.2 6.95 22.75 L6.85 22.75 Q6.7 23.55 6.2 24.15 5.85 24.6 5.4 24.85 6.2 24.9 6.8 25.5 7.55 26.25 7.55 27.25 L7.3 28.35 Q7.8 29.05 7.8 29.95 L7.65 30.9 9.05 30.55 11.55 29.6 M14.85 25.6 L15.05 25.6 17.05 25.2 M15.05 25.6 L15.2 25.6 14.55 25.8 M17.2 25.45 L17.85 25.7 20.45 21.9 M21.2 27.6 Q21.05 29.2 20.05 30.1 L17.75 31.4 22 41.7 Q29.15 35.95 27.05 29.05 M17.05 27.1 L20.3 27.1 M17.85 25.7 L20.3 26.6 M9.95 20.6 L9.2 21.35 M5.4 24.85 L4.7 24.95 4.35 24.95 4.1 25 4.25 25.9 Q4.25 26.85 3.7 27.55 4.3 27.2 5.05 27.2 6.2 27.2 7 28 L7.3 28.35 M6.85 22.75 L3.35 21.95 2.7 23.2 2.7 23.25 2.75 23.4 3.4 23.9 4.05 24.85 4.35 24.95 5.1 24.8 5.4 24.85 M0.95 24.7 L2.6 23.35 2.7 23.2 2.7 23.15 3.25 21.9 3.35 21.95 Q2.45 20.7 2.95 18.95 3.45 17.15 2.95 15.65 M2.7 23.25 L2.6 23.35 2.75 23.4 M3.7 27.55 L3.4 27.85 2.9 28.3 2.85 28.35 3.05 29.55 Q3.05 30.85 2.3 31.75 M2.9 28.3 L2.85 28.3 2.85 28.35 2.8 28.35 2.85 28.3 2.3 27.3 Q1.8 26.65 1.1 26.45 M7.65 30.9 L5.4 31.35 Q4 31.6 3.25 32.05 2.75 32.35 2.55 32.75 M17.75 31.4 L13.55 32.1 11.05 35.65 Q11.7 36.3 11.7 37.2 11.7 38.1 11.05 38.7 L10.45 39.2 Q10.85 39.3 10.55 41.1 L10.25 43.5 9.7 43.35 M7.6 40.95 L7.8 40.2 8.4 39.7 8.8 39.25 9.15 37.95 9.1 37.45 7.7 38.3 5.7 39 M10.45 39.2 L9.55 39.35 8.8 39.25 M11.05 35.65 L9.1 37.45 M4.05 24.85 L4.1 25 M21.8 45.45 Q20.6 43.7 22.05 42.85 M35.45 26.4 L35.45 26.45 35.4 26.45 33.15 29.3"/>
            <path fill="none" stroke="#594b35" stroke-width="1" stroke-linecap="round" stroke-linejoin="round" d="M24.75 1 Q34.65 1 41.65 8 48.7 15 48.7 24.9 48.7 34.8 41.65 41.8 34.65 48.85 24.75 48.85 14.85 48.85 7.85 41.8 0.85 34.8 0.85 24.9 0.85 15 7.85 8 14.85 1 24.75 1"/>
            <path stroke="none" fill="#594b35" d="M37.85 11.35 Q37.5 6.35 35.9 7.9 L7.85 7.9 Q11.4 4.35 15.75 2.65 19.9 1 24.7 1 29.5 1 33.65 2.65 38 4.4 41.55 7.95 48.55 14.95 48.55 24.85 48.55 34.75 41.55 41.7 34.6 48.7 24.7 48.7 L18.85 48.05 23.25 48.25 Q35.05 42.55 36.8 29.65 38 28.8 38 25.2 L38 24.55 38.1 21.6 Q38.15 16.3 37.85 11.35"/>
        </g>
        <g id="13">
            <path fill="none" stroke="#594b35" stroke-width="1" stroke-linecap="round" stroke-linejoin="round" d="M8.45 7.7 L37.1 7.7 37.85 12.6 Q38.5 18.65 38 24.2 37.45 30.05 35.75 34.7 32.25 44.15 23.85 48.45 M27.3 9.45 Q25.95 10.25 27.3 12 L27.75 12.45 Q29.3 13.95 30.15 17.05 30.95 20.1 29.5 23.8 L31.2 24 31.9 26.5 35.4 26.45 35.45 26.4 33.45 23.35 M10.7 18.85 Q14.65 18.2 20.45 21.9 L26.7 12.85 26.25 12.35 M27.3 12 L26.7 12.85 Q27.95 14.35 28.65 16.95 29.45 20.05 28 23.7 L29.5 23.8 M3.8 13.2 L4.7 14.85 Q8.05 15.1 10.55 18.6 M28.65 29.05 Q30.15 29.05 31.3 27.95 L31.9 26.5 20.3 26.6 21.2 26.95 21.2 27.6 26.95 28.7 28.65 29.05 Q30.95 36.55 22.3 42.65 L22 41.7 20.7 42.65 M20.45 21.9 Q22.25 23.05 25.8 24.6 25.5 23.7 28 23.7 M11.7 29.35 Q11.5 28.3 13.2 27.05 13.4 26.2 13.9 26 L14.55 25.8 14.85 25.6 Q10 25.2 6.95 22.75 L6.85 22.75 Q6.7 23.55 6.2 24.15 5.85 24.6 5.4 24.85 6.2 24.9 6.8 25.5 7.55 26.25 7.55 27.25 L7.3 28.35 Q7.8 29.05 7.8 29.95 L7.65 30.9 9.05 30.55 11.55 29.6 M14.85 25.6 L15.05 25.6 17.05 25.2 M15.05 25.6 L15.2 25.6 14.55 25.8 M17.2 25.45 L17.85 25.7 20.45 21.9 M21.2 27.6 Q21.05 29.2 20.05 30.1 L17.75 31.4 22 41.7 Q29.15 35.95 27.05 29.05 M17.05 27.1 L20.3 27.1 M17.85 25.7 L20.3 26.6 M9.95 20.6 L9.2 21.35 M5.4 24.85 L4.7 24.95 4.35 24.95 4.1 25 4.25 25.9 Q4.25 26.85 3.7 27.55 4.3 27.2 5.05 27.2 6.2 27.2 7 28 L7.3 28.35 M6.85 22.75 L3.35 21.95 2.7 23.2 2.7 23.25 2.75 23.4 3.4 23.9 4.05 24.85 4.35 24.95 5.1 24.8 5.4 24.85 M0.95 24.7 L2.6 23.35 2.7 23.2 2.7 23.15 3.25 21.9 3.35 21.95 Q2.45 20.7 2.95 18.95 3.45 17.15 2.95 15.65 M2.7 23.25 L2.6 23.35 2.75 23.4 M3.7 27.55 L3.4 27.85 2.9 28.3 2.85 28.35 3.05 29.55 Q3.05 30.85 2.3 31.75 M2.9 28.3 L2.85 28.3 2.85 28.35 2.8 28.35 2.85 28.3 2.3 27.3 Q1.8 26.65 1.1 26.45 M7.65 30.9 L5.4 31.35 Q4 31.6 3.25 32.05 2.75 32.35 2.55 32.75 M17.75 31.4 L13.55 32.1 11.05 35.65 Q11.7 36.3 11.7 37.2 11.7 38.1 11.05 38.7 L10.45 39.2 Q10.85 39.3 10.55 41.1 L10.25 43.5 9.7 43.35 M7.6 40.95 L7.8 40.2 8.4 39.7 8.8 39.25 9.15 37.95 9.1 37.45 7.7 38.3 5.7 39 M10.45 39.2 L9.55 39.35 8.8 39.25 M11.05 35.65 L9.1 37.45 M4.05 24.85 L4.1 25 M21.8 45.45 Q20.6 43.7 22.05 42.85 M35.45 26.4 L35.45 26.45 35.4 26.45 33.15 29.3"/>
            <path fill="none" stroke="#594b35" stroke-width="1" stroke-linecap="round" stroke-linejoin="round" d="M24.75 1 Q34.65 1 41.65 8 48.7 15 48.7 24.9 48.7 34.8 41.65 41.8 34.65 48.85 24.75 48.85 14.85 48.85 7.85 41.8 0.85 34.8 0.85 24.9 0.85 15 7.85 8 14.85 1 24.75 1"/>
            <path stroke="none" fill="#594b35" d="M37.85 11.35 Q37.5 6.35 35.9 7.9 L7.85 7.9 Q11.4 4.35 15.75 2.65 19.9 1 24.7 1 29.5 1 33.65 2.65 38 4.4 41.55 7.95 48.55 14.95 48.55 24.85 48.55 34.75 41.55 41.7 34.6 48.7 24.7 48.7 L18.85 48.05 23.25 48.25 Q35.05 42.55 36.8 29.65 38 28.8 38 25.2 L38 24.55 38.1 21.6 Q38.15 16.3 37.85 11.35"/>
        </g>
    </symbol>
    <symbol id="14" viewBox="0 0 50 50">
        <g id="14">
            <path stroke="none" fill="#594b35" d="M31.1 2.2 L31.15 2.25 31.5 2.3 31.15 2.35 Q22.15 3.1 19.1 7.7 20.8 3.6 31.1 2.2 20.8 3.6 19.1 7.7 L18.85 8.45 18.3 9.15 18 9.3 15.1 9.8 7.6 11.05 Q11.35 9.65 15.1 9.8 11.35 9.65 7.6 11.05 L7.15 11.1 Q3.65 10.9 14 3.3 22.55 -0.45 31.1 2.2 M38.95 38.65 L38.75 38.05 39.75 37.5 47 33.55 41.75 41.3 40.75 41.3 39.8 40.1 39.1 39.15 39.8 40.1 40.75 41.3 39.75 41.3 39.4 40.2 39.1 39.15 38.95 38.65 39 38.6 39.75 37.5 39 38.6 38.95 38.65 M40.45 41.7 Q42 41.35 38.55 44.55 25.75 50 18 47.55 L17.25 47.3 39.25 42.05 39.25 42.1 Q40 41.75 40.45 41.7 M39.25 42.1 L18 47.55 39.25 42.1 M39.4 40.2 L39.8 40.1 39.4 40.2 M10.75 43.3 Q6.85 42.4 3.9 35.55 -0.1 26.05 1.75 24.3 L10.75 43.3"/>
            <path fill="none" stroke="#594b35" stroke-width="1" stroke-linecap="round" stroke-linejoin="round" d="M31.1 2.2 Q20.8 3.6 19.1 7.7 L18.85 8.45 18.3 9.15 17.75 10.05 17.05 9.75 16.95 9.85 16.75 9.9 15.1 9.8 Q11.35 9.65 7.6 11.05 6.15 11.55 4.7 12.3 M39.75 37.5 L40.05 37.15 Q42.65 34.1 46.45 33.3 M40.75 41.3 L40.95 41.6 41.25 41.55 M38.75 38.7 L38.8 38.75 38.95 38.65 38.75 38.7 15.2 44.8 M38.8 38.75 L39.1 39.15 39.8 40.1 40.75 41.3 M38.95 38.65 L39 38.6 39.75 37.5 M39.25 42.1 Q40 41.75 40.45 41.7 M39.4 40.2 L15.95 46.3 M39.8 40.1 L39.4 40.2 M18 47.55 L39.25 42.1 M1.2 23.05 L11.95 44.8 M1.7 19.55 L14.75 44.55"/>
            <path fill="none" stroke="#594b35" stroke-width="1" stroke-linecap="round" stroke-linejoin="round" d="M41.35 8.25 Q48.2 15.15 48.2 24.9 48.2 34.65 41.35 41.55 34.45 48.4 24.7 48.4 14.95 48.4 8.05 41.55 1.2 34.65 1.2 24.9 1.2 15.15 8.05 8.25 14.95 1.4 24.7 1.4 34.45 1.4 41.35 8.25"/>
            <path stroke="none" fill="#594b35" d="M42.05 24.25 Q42.55 25.9 41.8 27.1 42.65 27.1 43.4 27.75 L44.3 29.3 44.35 31.05 Q44.05 31.95 43.25 32.45 L42.45 32.85 Q40.85 33.2 39.9 32.45 L39.4 33.7 38.5 34.65 Q37.15 35.55 35.7 35.15 34.45 34.75 33.7 33.55 32.95 32.25 33.2 31 33.55 29.55 35.05 28.8 L34.4 28.8 33.75 28.85 33.5 28.55 33.3 28.1 32.8 28.5 32.1 28.5 31.65 28.15 Q31.45 27.8 31.6 27.4 L7.4 18.6 7.3 18.35 7.35 18.05 5.75 17.95 5.5 17.55 Q5.35 17.1 5.65 16.75 5.85 16.35 6.3 16.25 L7.15 16.35 Q7.55 16.55 7.6 17.1 L8.8 17 9.45 17.35 10.2 17.5 Q10.2 17.25 10.35 17.05 10.1 16.7 9.25 16.45 L8 16 8.3 15.45 8.5 14.9 8.9 14.9 9.25 14.75 Q9.4 14.5 9.15 14.3 L8.8 13.95 9.3 12.65 9.8 11.35 10.8 11.7 11.8 12.2 11.4 13.1 11.1 14.05 11.55 14.15 12.05 14.35 12.35 13.4 12.75 12.5 13.6 12.75 14.35 13.05 Q14.45 13.25 13.95 14.05 13.55 14.8 13.7 15 L14.15 15.15 14.6 15.2 14.9 14.2 Q15.1 13.45 15.25 13.4 15.5 13.3 16.3 13.7 L17.25 14.15 16.8 15.45 16.25 16.75 15.8 16.75 Q15.6 16.8 15.55 17 15.4 17.45 16 17.6 L15.8 18.25 15.55 18.8 14.35 18.35 Q13.4 17.85 13.2 18.05 L13 18.55 32.3 25.65 Q32.4 25.1 32.95 25.05 L33.8 25.35 33.9 25.85 34 26.15 34.45 26 34.8 25.9 35.25 26.45 35.75 26.85 Q35.1 25.6 35.6 24.35 36.1 23.25 37.3 22.6 38.45 21.95 39.65 22.1 41 22.3 41.65 23.4 L42.05 24.25 M41.7 28.4 Q41.1 28.4 40.45 28.75 L40.1 28.15 39.75 27.5 Q40.6 27.05 40.9 26.15 41.2 25.35 40.9 24.65 40.55 23.75 39.65 23.5 L38 23.55 Q37.15 23.9 36.8 24.65 36.45 25.45 36.95 26.45 L37.3 26.95 37.85 27.4 37.8 27.65 37.85 27.9 39 27.95 Q39.3 28.35 39.05 29.1 38.85 29.85 38.45 29.95 37.85 30.15 37.35 29.25 L37.15 29.45 37 29.75 Q36.05 29.55 35.3 30.05 34.65 30.55 34.5 31.35 34.3 32.2 34.65 32.9 35.05 33.7 35.95 33.95 37.25 34.35 38.15 33.25 39.05 32.15 38.55 30.85 L39.3 30.5 39.95 30.4 Q40.2 31.4 41 31.6 L42.4 31.35 Q43.05 30.9 43.15 30.15 43.3 29.35 42.55 28.7 42.2 28.35 41.7 28.4"/>
        </g>
    </symbol>
    <symbol id="15" viewBox="0 0 50 50">
        <g id="15">
            <path stroke="none" fill="#ffffff" d="M33.6 26.7 L33.75 26.65 33.8 26.6 33.95 26.55 34.2 26.4 34.3 26.4 34.35 26.4 Q34.8 26.4 35.05 26.7 35.4 27.05 35.4 27.5 L35.05 28.25 Q34.8 28.55 34.35 28.55 33.95 28.55 33.55 28.25 L33.35 27.9 33.25 27.5 31.8 28.6 33.25 27.3 33.35 26.85 33.5 26.75 33.55 26.7 33.6 26.7 M33.35 27.9 L33.5 28 34.2 28.25 34.8 28 35.05 27.3 34.8 26.7 34.3 26.4 34.8 26.7 35.05 27.3 34.8 28 34.2 28.25 33.5 28 33.35 27.9"/>
            <path fill="none" stroke="#594b35" stroke-width="1" stroke-linecap="round" stroke-linejoin="round" d="M24.1 13.75 L26.25 13.85 26.5 14.65 29.4 15.4 30.3 14.7 Q32.8 16.8 35.65 16.95 L34.9 15.95 M35.65 16.95 L36.4 16.95 36.6 18.5 M35 19.1 L33.2 19.2 Q32.6 22.85 31.6 20.5 32.5 22.95 33.8 22.25 L36.05 19.25 35.15 17.95 M33.2 19.2 L28.2 17.1 Q31.3 20.1 29.3 22.15 L31.6 20.5 M33.6 26.7 L33.75 26.65 33.8 26.6 M34.2 26.4 L33.8 26.55 33.75 26.6 33.5 26.7 33.55 26.7 M33.8 22.25 L31.65 25.1 29.7 25.1 29.6 26 29.7 26.4 30.3 28.25 33.4 26.8 33.5 26.75 33.5 26.7 M33.4 26.8 L33.35 26.85 M29.7 25.1 L29.45 25.1 29.6 26 M26.4 35.05 L30.3 36.25 30.55 29.2 30.3 28.25 M33.35 27.9 Q32.95 27.8 31.8 28.6 L31.5 28.8 M31.8 28.6 L33.25 27.3 33.35 26.85 M34.3 26.4 L34.8 26.7 35.05 27.3 34.8 28 34.2 28.25 33.5 28 33.35 27.9 M34.2 26.4 L34.3 26.4 M31 40.05 L28.2 39 24.3 39.35 Q22.5 38.55 21 37.6 21.8 41.9 18.9 41.4 L19.8 42.15 21.65 42.15 Q23.75 41.7 24.7 42.6 23.8 41.05 27.95 41.4 L31 40.85 31 40.05 30.55 29.2 M4.9 6.3 L6.2 6.8 7.15 7.15 8.05 7.55 Q15.05 0.65 24.85 0.65 34.75 0.65 41.75 7.65 48.8 14.65 48.8 24.55 48.8 34.45 41.75 41.45 37.9 45.35 33.15 47.1 33.75 47.8 30.95 47.8 L24.85 48.5 19.25 47.9 20 49 Q19.25 50.4 15.2 47.3 L14.45 46.15 14.45 46.2 Q10.95 44.45 7.95 41.45 L7 40.45 6.85 40.3 Q0.95 33.65 0.95 24.55 0.95 14.9 7.6 8.05 L6.65 7.6 4.75 6.75 M30.7 28.5 L31.35 30.95 M27.95 41.4 L27.6 44.85 32.75 46.8 32.8 46.8 33.15 47.1 M7.6 8.05 L7.95 7.65 8.05 7.55 7.1 7.2 6.65 7.6 M6.2 6.8 L7.1 7.2 7.15 7.15 M18.25 8.8 L17.75 8.25 15.7 6.05 18.25 3.2 Q22.4 2.9 26.9 4.5 L27.25 5.15 27.55 5.35 28.05 6.55 28.05 6.6 Q28.2 7.4 27.65 9.2 L28.1 8.85 Q27.95 10.8 27.45 11.9 L28.4 11.5 Q29.25 10.95 29.35 10.2 M28.05 6.55 L27.85 6.15 25.4 5.75 Q22.15 6.15 22.5 7.2 L22 7.55 21.35 7.85 Q21.35 8.5 21.9 10.3 22.45 11.05 22.65 12 L22.95 12.35 Q23.85 13.4 25 13.4 26.2 13.4 27 12.35 L27.45 11.9 26.25 12 24.1 11.5 23.5 10.95 M24.05 8.2 L25.4 8.2 M24.45 9.05 L24.95 8.75 M28.05 6.6 Q25.25 8.3 27.15 11.15 M27.25 8.4 Q27.7 8.55 27.65 9.2 M25.4 11.05 L26.6 11.55 M21.9 10.3 L19.3 9.35 Q18.9 9.2 18.75 9.05 18.05 8.6 20.45 8.25 L21.25 7.85 21.35 7.85 M21.5 13.4 L22.65 12 M20 13.75 L16.9 15.55 Q14.2 20.5 14.8 25.4 L16.8 25.9 17.7 27.35 Q18.4 28.15 18.3 22.4 L18.9 23.3 Q20.2 24.1 20.55 14.15 L20.6 14 20 13.75 8.5 9.05 M20 13.75 L20.65 13.6 21.1 13.65 20.7 14.05 Q21.5 16.05 24.5 15.55 L24.6 15.6 Q26.5 15.1 27 16.65 L26.5 14.7 26.5 14.65 M20.65 13.6 L20.6 14 20.7 14.05 20.55 14.15 M27 16.65 L28.2 17.1 27.4 15.35 M27.85 6.15 L27.25 5.15 M17.75 8.25 L19.45 6.05 M18.75 9.05 L20.45 8.25 M16.85 6.75 L18.35 5.05 M21.65 12.7 L8.05 7.55 M7.6 8.05 L10.3 9.2 M22.8 20.1 L24.95 20.1 24.8 18.15 22.35 18.15 M24.6 15.6 L24.8 18.15 26.5 18.15 M26.9 21.85 L25.05 21.85 25.2 24 26.9 24 M26.7 20.1 L24.95 20.1 25.05 21.85 23.05 21.85 M19.85 28.75 L20.55 29.5 21.8 28.55 M21.7 27.5 L24.6 29 25.15 24.1 23.45 24 M18.9 23.3 L21.5 27.05 18.75 29.2 17.7 27.35 M25.15 24.1 L25.2 24 26.1 34.85 M16.8 25.9 Q15 31.45 11.75 32.75 L15.2 34.1 17.9 35.15 22.35 33.55 23 31.2 22.3 31.25 20.55 29.5 M15.2 34.1 L14.65 36.25 14.7 36.15 14.8 36.1 14.2 37.95 14.4 37.1 14.65 36.25 Q10.95 40 6.85 40.3 M17.65 34.4 L18.6 31.95 M14.45 46.2 L14.35 45.95 14.45 46.15 15.35 41.3 13.3 41.4 14.05 38.1 Q10.9 41 7 40.45 M14.7 36.15 L14.4 37.1 M24.65 30.8 L24.6 29 23 31.2 24.65 30.8 M21 37.6 L17.9 35.15 M15.35 41.3 L18.9 41.4 17.2 45.2 19.25 47.9 M24.7 42.6 L25.05 43.1 25.15 43.2 25.2 43.4 25.25 43.7 25.25 43.75 25.35 44.25 25.35 44.35 25.9 47.4 28.8 47.9 30.95 47.8 M25.35 44.25 L25.3 44.15 25.2 43.9 24.95 43.15 25 43.25 25.1 43.2 25.05 43.1 M25.25 43.75 L25.3 44.15 M25 43.25 L25.2 43.9 M25.15 43.2 L25.1 43.2 25.2 43.4 M17.2 45.2 L17.15 46.75 M27 16.65 Q29.5 20.1 29.45 25.1 M29.7 26.4 Q29.95 27.65 28.6 32.05"/>
            <path stroke="none" fill="#594b35" d="M4.5 22.3 L3.55 22.3 3.55 20.9 6.15 20.9 6.15 27.15 4.5 27.15 4.5 22.3"/>
            <path stroke="none" fill="#594b35" d="M9.15 22.35 L8.9 23.05 8.9 25 9.1 25.7 Q9.3 26.05 9.65 26.05 10 26.05 10.2 25.7 L10.4 25 10.4 23.05 10.2 22.35 Q10 22 9.65 22 9.3 22 9.15 22.35 M7.25 24 L7.35 23 7.65 21.95 8.35 21.05 Q8.85 20.7 9.65 20.7 10.45 20.7 10.95 21.05 L11.7 21.95 12 23 12 25.05 11.7 26.1 10.95 27 9.65 27.3 8.35 27 7.65 26.1 7.35 25.05 7.25 24"/>
            <path stroke="none" fill="#594b35" d="M37.2 21.05 Q37.7 20.7 38.5 20.7 39.3 20.7 39.8 21.05 L40.55 21.95 40.85 23 40.85 25.05 40.55 26.1 39.8 27 38.5 27.3 37.2 27 36.5 26.1 36.2 25.05 36.1 24 36.2 23 36.5 21.95 37.2 21.05 M38.5 22 Q38.15 22 38 22.35 L37.75 23.05 37.75 25 37.95 25.7 Q38.15 26.05 38.5 26.05 L39.05 25.7 39.25 25 39.25 23.05 39.05 22.35 38.5 22"/>
            <path stroke="none" fill="#594b35" d="M42.8 21.05 Q43.3 20.7 44.1 20.7 44.9 20.7 45.4 21.05 L46.15 21.95 46.45 23 46.45 25.05 46.15 26.1 45.4 27 44.1 27.3 42.8 27 42.1 26.1 41.8 25.05 41.7 24 41.8 23 42.1 21.95 42.8 21.05 M44.1 22 Q43.75 22 43.6 22.35 L43.35 23.05 43.35 25 43.55 25.7 Q43.75 26.05 44.1 26.05 L44.65 25.7 44.85 25 44.85 23.05 44.65 22.35 Q44.45 22 44.1 22"/>
        </g>
    </symbol>
    <symbol id="16" viewBox="0 0 50 50">
        <g id="16">
            <path fill="none" stroke="#594b35" stroke-width="1" stroke-linecap="round" stroke-linejoin="round" d="M33.2 24.6 L31.25 24.95 36.5 30 36.4 29.4 41.8 26.9 37.15 17.4 33.9 18.8 Q30.3 18.25 29.1 17.2 26.45 15.55 23.15 15.9 L22.9 16 22.25 16.2 22.05 16.3 21.75 16.7 19.4 19.8 Q18.95 20.25 18.95 20.85 18.95 21.45 19.45 21.85 19.9 22.25 20.7 22.2 L22.15 21.9 23.35 20.8 26.35 20.65 26.3 21 Q26.3 22.55 27.7 23.65 29.05 24.75 30.9 24.8 L31.1 24.8 31.25 24.95 M22.25 16.2 L23.15 15.9 M37.15 17.4 L39.4 16.4 42.8 26.4 48.8 27 M39.2 16.2 L39.3 14.7 45.15 12.4 M6.95 9.8 L11.95 13.4 11.85 15.75 11.95 15.6 12.85 16.15 15.95 18.1 Q18.65 18.55 22.05 16.3 M12.85 16.15 L11.95 18 Q12.25 18.15 12.55 18.45 13.45 19.35 13.45 20.6 13.45 21.85 12.55 22.7 11.7 23.6 10.45 23.6 L9.3 23.4 8.25 25.5 M9.3 23.4 L8.3 22.7 7.65 21.65 5.85 24.1 13.25 29.6 Q13.25 29.55 15.05 28.25 L15.2 28.25 Q15.85 28.3 16.4 28.65 16.95 29 16.95 29.5 L16.8 30.05 Q17.7 29 18.3 28.95 19 28.85 19.75 29.8 L20.25 30.6 20.55 30.45 Q21.4 30.05 22.1 31.1 L22.45 31.75 22.9 31.8 Q23.8 32 23.85 32.7 L23.45 34.35 Q23.05 35.3 24 35.85 L26.4 37.75 Q29.25 38.15 28.6 35.9 L25.2 32.6 M7.65 21.65 L10.5 17.6 11.85 15.75 M20.25 30.6 L18.9 31.7 Q18.05 32.55 17.95 33.3 L17.95 34.5 17.95 34.45 18.25 35.45 18.55 36.1 18.95 36.55 Q19.55 37.05 20.5 36.35 20.2 35.6 20.55 34.4 20.85 33.2 21.4 32.35 21.85 31.75 22.45 31.75 M18.25 35.45 L18.2 35.45 18.55 36.1 M18.2 35.45 L17.95 34.5 16.85 35.2 Q16.25 35.35 15.85 34.9 L15.35 33.8 14.7 33.85 Q13.8 33.95 13.15 31.4 L13.25 29.6 M16.8 30.05 L16.35 30.65 16.1 30.9 Q15.1 32.25 15.25 32.95 L15.35 33.8 15.25 33.55 15.2 33.7 14.7 33.85 M16.1 30.9 L16.35 30.6 16.8 30.05 M24 35.85 L23.5 36.95 22.65 37.85 22.15 37.95 Q21.4 37.95 20.85 37.1 L20.35 37.15 Q19.55 37.15 18.95 36.55 M20.85 37.1 L20.75 36.95 20.5 36.35 M10.65 20.8 L12.85 20.2 M10.5 17.6 L11.95 18 M5.55 24.3 L1.15 24.7 M36.5 30 L36.5 30.2 Q36.65 32.95 33.8 31.8 L33.85 32 Q34.6 35.1 31.8 34.65 L31.8 34.75 Q31.85 37.1 29.1 36.05 L28.9 35.95 28.85 35.95 28.6 35.9 28.6 35.85 28.85 35.95 M29.6 27.9 L33.85 32 M31.8 34.75 L26.9 30 M42.8 26.4 L41.8 26.9"/>
            <path fill="none" stroke="#594b35" stroke-width="1" stroke-linecap="round" stroke-linejoin="round" d="M41.85 8.15 Q48.9 15.15 48.9 25.05 48.9 34.95 41.85 41.95 34.85 49 24.95 49 15.05 49 8.05 41.95 1.05 34.95 1.05 25.05 1.05 15.15 8.05 8.15 15.05 1.15 24.95 1.15 34.85 1.15 41.85 8.15"/>
        </g>
    </symbol>
    <symbol id="17" viewBox="0 0 50 50">
        <g id="17">
            <path stroke="none" fill="#594b35" d="M24.4 5.75 L23.95 6 21.15 7.45 Q16.35 9.8 15.5 10.35 L10.4 13.15 9.1 13.95 8.05 13.95 Q7.55 13.9 7.25 14.35 L7.05 14.85 6.75 14.85 Q5.9 14.65 5.4 15.1 5.05 15.4 5.05 15.85 L5.05 15.95 Q5.05 16.95 6.1 16.95 L6.6 16.85 6.7 16.85 Q6.8 17.55 7.65 17.55 L8.5 18.4 Q9.95 19.65 10.05 21.1 10.1 21.5 11.15 22.3 L12.45 23.55 12.75 24.75 13.05 26.05 13.05 29.65 12.3 29.65 9.75 29.65 9.4 29.75 2.35 29.75 Q1.85 29.7 1.55 30.15 L1.5 30.3 Q0.95 27.75 0.95 25 L1.05 22.7 Q1.25 20.4 1.85 18.3 3.45 12.6 7.9 8.1 L9.8 6.4 Q16.2 1.15 24.8 1.15 33.4 1.15 39.8 6.4 L41.65 8.1 Q46.15 12.6 47.75 18.3 48.65 21.45 48.65 25 48.65 27.7 48.15 30.15 47.9 29.7 47.25 29.65 L38.35 29.65 38.35 29.45 38.15 26.2 38.1 24.95 Q38.1 24.25 38.4 23.85 L39.8 22.55 40.85 21.35 40.95 20.1 Q41 19.35 41.35 18.95 41.55 18.75 42.8 18.25 43.9 17.65 43.95 16.7 44.45 16.45 44.45 15.85 44.45 14.95 43.45 14.85 L43.3 14.85 Q42.65 13.65 35.1 10.55 L29.55 7.35 28 6.75 Q25.65 4 24.4 5.75"/>
            <path stroke="none" fill="#cccccc" d="M36.35 23.05 L36.3 23 36.45 22.95 36.35 23.05 M30.85 10.85 L30.65 10.5 34.1 12.35 30.85 10.85"/>
            <path fill="none" stroke="#594b35" stroke-width="1" stroke-linecap="round" stroke-linejoin="round" d="M11.95 35.05 L3.55 35.05 M2.3 32.45 L12 32.45 M1.65 29.85 L12.45 29.85 M9.35 38.45 L12.55 36.05 M25.15 5.25 L4.55 15.85 9.35 19.05 M9.95 21.45 L12.35 23.85 M38.35 35.05 L46.35 35.05 M38.55 32.45 L47.65 32.45 M38.7 29.85 L48.15 29.85 M38.25 36.45 L40.55 38.25 M38.15 23.85 L40.75 21.65 M40.95 19.25 L45.35 16.05 M25.75 5.15 L45.35 15.65"/>
            <path fill="none" stroke="#594b35" stroke-width="1" stroke-linecap="round" stroke-linejoin="round" d="M23.75 16.05 L23.75 11.85 Q25.55 9.85 27.35 11.85 L27.35 16.05 M32.1 47.7 Q31.75 47.2 31.75 46.55 31.75 45.7 32.35 45.05 33 44.45 33.85 44.45 34.7 44.45 35.3 45.05 35.8 45.55 35.9 46.15 M23.55 48.65 L23.55 44.45 27.15 44.45 27.15 48.65 M14.55 46.5 Q14.55 45.7 15.15 45.05 15.8 44.45 16.65 44.45 17.5 44.45 18.1 45.05 18.75 45.7 18.75 46.55 18.75 47.4 18.1 48"/>
            <path fill="none" stroke="#594b35" stroke-width="1" stroke-linecap="round" stroke-linejoin="round" d="M8.15 8 Q15.15 1 25.05 1 34.95 1 41.95 8 49 15 49 24.9 49 34.8 41.95 41.8 34.95 48.85 25.05 48.85 15.15 48.85 8.15 41.8 1.15 34.8 1.15 24.9 1.15 15 8.15 8"/>
            <path fill="none" stroke="#594b35" stroke-width="1" stroke-linecap="round" stroke-linejoin="round" d="M9.75 18.2 L40.95 18.2 40.95 21.5 9.75 21.5 9.75 18.2 M12.55 23.3 L16.2 23.3 16.2 36.5 12.55 36.5 12.55 23.3 M31.05 23.3 L31.05 36.5 27.4 36.5 27.4 23.3 31.05 23.3 M23.45 23.3 L23.45 36.5 19.8 36.5 19.8 23.3 23.45 23.3 M34.7 36.5 L38.3 36.5 38.3 23.3 34.7 23.3 34.7 36.5 M25.45 7.75 L42.6 16.35 8.25 16.35 25.45 7.75 M9.4 38.45 L40.6 38.45 40.6 41.75 9.4 41.75 9.4 38.45"/>
        </g>
    </symbol>
    <symbol id="18" viewBox="0 0 50 50">
        <g id="18">
            <path fill="none" stroke="#594b35" stroke-width="1" stroke-linecap="round" stroke-linejoin="round" d="M48.85 24.9 Q48.85 34.8 41.8 41.8 34.8 48.85 24.9 48.85 15 48.85 8 41.8 1 34.8 1 24.9 1 15 8 8 15 1 24.9 1 34.8 1 41.8 8 48.85 15 48.85 24.9"/>
            <path stroke="none" fill="#594b35" d="M23.25 14.7 Q22.15 13.5 20.55 13.5 18.3 13.5 15.9 15.85 12.6 19.4 10.05 25.45 8.2 29.95 8.2 32.5 8.2 34.55 9.3 35.65 10.4 36.85 11.8 36.85 13.45 36.85 15.45 35.55 17.4 34.2 19.6 31.45 21.6 28.75 22.6 25.8 24.4 21.1 24.4 17.9 24.4 16 23.25 14.7 M30.4 2.05 L30.2 1.95 31 1.7 31.55 1.9 35 3 Q37.65 5.25 39.3 8.35 41.9 13.4 41.9 19 41.9 24.5 39.45 30.05 36.95 35.55 33.1 38.05 29.25 40.55 25.1 40.55 22.7 40.55 21.6 39.4 20.45 38.3 20.45 36.4 L21 31.9 Q16.6 37.3 13.75 38.95 10.95 40.6 8.95 40.6 6.7 40.6 5.1 38.6 3.4 36.7 3.4 33.45 3.4 28.95 6.25 23.5 9.1 18.1 13.9 14.6 17.6 12 20.25 12 22.25 12 23.65 13.15 24.95 14.15 25.45 16.25 L26.5 12.95 31.25 12.2 25.3 33.05 24.85 36 Q24.85 36.85 25.45 37.7 26.1 38.3 27.1 38.3 29.4 38.3 32.5 36.15 35.75 33.8 37.9 28.9 40.05 23.9 40.05 18.45 40.05 13.2 37.6 8.8 34.9 4.2 30.4 2.05"/>
        </g>
    </symbol>
    <symbol id="19" viewBox="0 0 50 50">
        <g id="19">
            <path stroke="none" fill="#594b35" d="M32.45 34.3 Q32.1 36.45 28.4 37.85 24.8 39.2 19.7 39.35 14.55 39.5 10.9 38.25 7.25 37.05 6.9 34.6 6.6 32.15 10.3 30.1 14 28.1 19.6 28 25.15 27.9 29.05 30.05 32.85 32.1 32.45 34.3"/>
            <path fill="none" stroke="#594b35" stroke-width="1" stroke-linecap="round" stroke-linejoin="round" d="M48.95 25 Q48.95 34.9 41.9 41.9 34.9 48.95 25 48.95 15.1 48.95 8.1 41.9 1.1 34.9 1.1 25 1.1 15.1 8.1 8.1 15.1 1.1 25 1.1 34.9 1.1 41.9 8.1 48.95 15.1 48.95 25"/>
            <path stroke="none" fill="#ffffff" d="M35.7 29.35 Q39.45 31.5 39 33.7 38.6 35.8 34.9 37.15 31.3 38.45 26.2 38.5 21 38.55 17.4 37.25 13.75 36 13.45 33.5 13.2 31.05 16.95 29.1 20.7 27.15 26.3 27.15 31.85 27.15 35.7 29.35"/>
            <path fill="none" stroke="#594b35" stroke-width="1" stroke-linecap="round" stroke-linejoin="round" d="M13.75 34.05 L13.75 31.95 13.65 31.55 13.7 31.35 Q13.9 29.75 17.3 28.5 21 27.2 26.05 27.15 31.25 27.1 34.9 28.4 38.4 29.5 38.6 31.1 L38.6 31.35 38.5 31.75 38.55 34.55 M13.7 31.35 L13.75 31.95 Q13.9 32.5 14.4 32.95 15.35 33.85 17.35 34.5 L18.1 34.75 18.15 34.75 Q21.6 35.75 26.15 35.65 L26.6 35.7 31 35.35 34.9 34.35 36.8 33.6 37.9 32.75 38.5 31.75 38.6 31.1 M14.3 34.35 L14.35 34 M22.35 35.9 L22.4 37.5 M18.15 36.9 L18.15 34.75 M36.8 33.6 L36.8 35.6 M38.1 34.55 L38.1 34.85"/>
            <path fill="none" stroke="#594b35" stroke-width="1.8" stroke-linecap="round" stroke-linejoin="round" d="M38.1 34.85 Q37.5 36.2 34.75 37.2 31.25 38.45 26.3 38.5 21.35 38.55 17.95 37.35 14.35 36.15 14.3 34.35"/>
            <path stroke="none" fill="#ffffff" d="M35.5 23.75 Q39.25 25.9 38.8 28.1 38.4 30.2 34.7 31.55 31.1 32.85 26 32.9 20.8 32.95 17.2 31.65 13.55 30.4 13.25 27.9 13 25.45 16.75 23.5 20.5 21.55 26.1 21.55 31.65 21.55 35.5 23.75"/>
            <path fill="none" stroke="#594b35" stroke-width="1" stroke-linecap="round" stroke-linejoin="round" d="M36.4 27.9 L37.5 27 38.15 26 38.2 25.35 Q38 23.75 34.55 22.65 30.85 21.35 25.7 21.4 20.6 21.45 16.9 22.75 13.5 24 13.35 25.6 L13.35 26.25 Q13.5 26.75 14 27.25 14.95 28.1 16.95 28.75 L17.75 29 Q21.2 30 25.8 29.95 L26.2 29.95 30.6 29.6 34.5 28.6 36.4 27.9 36.4 29.85 M13.9 28.65 L13.95 28.25 M17.75 31.15 L17.75 29 M21.95 30.15 L22 31.75 M38.15 26 L38.2 25.6 38.2 25.35 M38.15 28.8 L38.15 26 M37.7 28.8 L37.7 29.15 M13.35 28.3 L13.35 26.25 13.3 25.8 13.35 25.6"/>
            <path fill="none" stroke="#594b35" stroke-width="1.8" stroke-linecap="round" stroke-linejoin="round" d="M37.7 29.15 Q37.1 30.45 34.4 31.45 30.85 32.75 25.9 32.75 20.95 32.8 17.55 31.6 13.95 30.4 13.9 28.65"/>
            <path stroke="none" fill="#ffffff" d="M37.3 18 Q41.05 20.15 40.6 22.35 40.2 24.45 36.5 25.8 32.9 27.1 27.8 27.15 22.6 27.2 19 25.9 15.35 24.65 15.05 22.15 14.8 19.7 18.55 17.75 22.3 15.8 27.9 15.8 33.45 15.8 37.3 18"/>
            <path fill="none" stroke="#594b35" stroke-width="1" stroke-linecap="round" stroke-linejoin="round" d="M15.8 23 L15.85 22.6 M32.5 23.95 L36.4 22.95 38.3 22.25 39.4 21.35 40.05 20.35 40.1 19.7 Q39.9 18.1 36.45 17 32.75 15.7 27.6 15.75 22.5 15.8 18.8 17.1 15.4 18.35 15.25 19.95 L15.25 20.6 Q15.4 21.1 15.9 21.6 16.85 22.45 18.85 23.1 L19.65 23.35 Q23.1 24.35 27.7 24.3 L28.1 24.3 32.5 23.95 M23.85 24.5 L23.9 26.1 M19.65 25.5 L19.65 23.35 M40.1 19.7 L40.1 19.95 40.05 20.35 40.05 23.15 M38.3 22.25 L38.3 24.2 M39.6 23.15 L39.6 23.5 M15.25 22.65 L15.25 20.6 15.2 20.15 15.25 19.95"/>
            <path fill="none" stroke="#594b35" stroke-width="1.8" stroke-linecap="round" stroke-linejoin="round" d="M39.6 23.5 Q39 24.8 36.3 25.8 32.75 27.1 27.8 27.1 22.85 27.15 19.45 25.95 15.85 24.75 15.8 23"/>
            <path stroke="none" fill="#ffffff" d="M36.05 18.2 Q35.7 20.35 32 21.75 28.4 23.1 23.3 23.25 18.15 23.4 14.5 22.15 10.85 20.95 10.5 18.5 10.2 16.05 13.9 14 17.6 12 23.2 11.9 28.75 11.8 32.65 13.95 36.45 16 36.05 18.2"/>
            <path fill="none" stroke="#594b35" stroke-width="1" stroke-linecap="round" stroke-linejoin="round" d="M35.7 15.65 Q35.45 14.05 32 13 28.25 11.75 23.1 11.9 18 12.05 14.35 13.4 10.95 14.7 10.85 16.3 L10.85 16.95 11.55 17.95 Q12.5 18.8 14.5 19.4 L15.3 19.65 Q18.8 20.6 23.35 20.45 L23.75 20.45 28.15 20 32.05 18.95 33.95 18.2 35 17.3 35.65 16.3 35.7 15.65 35.7 15.9 35.65 16.3 35.7 19.1 M11.45 19.35 L11.5 18.95 M35.25 19.1 L35.25 19.45 M33.95 18.2 L33.95 20.15 M19.55 20.7 L19.6 22.3 M15.35 21.8 L15.3 19.65 M10.9 19 L10.85 16.95 10.8 16.5 10.85 16.3"/>
            <path fill="none" stroke="#594b35" stroke-width="1.8" stroke-linecap="round" stroke-linejoin="round" d="M35.25 19.45 Q34.7 20.75 32 21.8 28.45 23.15 23.5 23.25 18.6 23.4 15.15 22.25 11.55 21.1 11.45 19.35"/>
            <path fill="none" stroke="#594b35" stroke-width="1" stroke-linecap="round" stroke-linejoin="round" d="M25.45 20.3 L14.65 13.5"/>
        </g>
    </symbol>
    <symbol id="2" viewBox="0 0 50 50">
        <g id="2">
            <path stroke="none" fill="#594b35" d="M18.35 9.4 L18.25 9.45 17.95 9.5 15.35 9.95 7.85 11.2 7.4 11.25 Q3.9 11.05 14.25 3.45 22.8 -0.3 31.35 2.35 22.95 3.9 19.1 8.6 L18.55 9.3 18.35 9.4 17.95 9.5 18.35 9.4 M39.2 38.8 L39 38.2 40 37.65 40.15 37.45 40.3 37.3 Q42.5 34.75 47.05 33.1 46.65 33.55 47.25 33.7 L42 41.45 41 41.45 40.95 41.4 40.9 41.35 41 41.25 40.85 41.3 40.75 41.15 40.85 41.3 41 41.25 40.9 41.35 40.95 41.4 38.8 44.7 Q26 50.15 18.25 47.7 L27.95 44.95 18.25 47.7 17.5 47.45 27.95 44.95 39.5 42.2 39.9 42 39.95 41.95 40.35 41.7 40.65 41.5 40.9 41.35 40.85 41.3 40.65 41.5 40.4 41.6 40.65 41.5 40.85 41.3 40.9 41.35 40.65 41.5 40.35 41.7 40.4 41.6 40.75 41.15 40.05 40.25 39.65 40.35 39.55 39.95 39.35 39.3 39.2 38.8 39.25 38.75 40 37.65 39.25 38.75 39.2 38.8 M15.35 9.95 Q11.6 9.8 7.85 11.2 11.6 9.8 15.35 9.95 M2 24.45 L11 43.45 Q7.1 42.55 4.15 35.7 0.15 26.2 2 24.45 M39.35 39.3 L40.05 40.25 39.35 39.3"/>
            <path fill="none" stroke="#594b35" stroke-width="1" stroke-linecap="round" stroke-linejoin="round" d="M17.95 9.5 L15.35 9.95 M7.85 11.2 Q6.4 11.7 4.95 12.45 M18.35 9.4 L18.75 9.3 17.3 9.95 18.5 10 18.85 10 19 10.2 39 38.85 39.2 38.8 39.05 38.9 39 38.85 15.45 44.95 M40 37.65 L40.15 37.45 40.3 37.3 Q42.5 34.75 47.05 33.1 M41 41.45 L41.2 41.75 41.5 41.7 M18.55 9.3 L19.1 8.6 Q22.95 3.9 31.35 2.35 M7.85 11.2 Q11.6 9.8 15.35 9.95 M17.3 9.95 L17.2 10 18.5 10 M17.2 10 L17.3 9.9 17.3 9.95 M17.95 9.5 L18.35 9.4 M39.35 39.3 L39.05 38.9 M39.2 38.8 L39.25 38.75 40 37.65 M16.2 46.45 L39.45 40.4 39.55 39.95 M39.65 40.35 L40.05 40.25 39.35 39.3 M40.75 41.15 L40.85 41.3 41 41.25 40.9 41.35 40.95 41.4 41 41.45 M40.4 41.6 L40.65 41.5 40.85 41.3 40.9 41.35 40.65 41.5 40.35 41.7 40.25 41.75 39.95 41.95 39.9 42 39.5 42.2 M27.95 44.95 L18.25 47.7 M40.75 41.15 L40.05 40.25 M40.4 41.6 L40.25 41.75 27.95 44.95 M39.65 40.35 L39.45 40.4 M4.8 12.8 Q13.6 9.35 19 10.2 M1.95 19.7 L15 44.7 M1.45 23.2 L12.2 44.95"/>
            <path fill="none" stroke="#594b35" stroke-width="1" stroke-linecap="round" stroke-linejoin="round" d="M41.6 8.4 Q48.45 15.3 48.45 25.05 48.45 34.8 41.6 41.7 34.7 48.55 24.95 48.55 15.2 48.55 8.3 41.7 1.45 34.8 1.45 25.05 1.45 15.3 8.3 8.4 15.2 1.55 24.95 1.55 34.7 1.55 41.6 8.4"/>
        </g>
    </symbol>
    <symbol id="20" viewBox="0 0 50 50">
        <g id="20">
            <path fill="none" stroke="#594b35" stroke-width="1" stroke-linecap="round" stroke-linejoin="round" d="M14.05 14.35 L38.65 21.75 40.05 20.4 M38.65 21.75 L39.05 21.85 M14.05 15.85 L21.05 34.35 M21.55 37.4 L38.65 21.75"/>
            <path stroke="none" fill="#594b35" d="M42 18.9 Q43.55 20.45 43.55 22.6 43.55 24.75 42 26.3 40.45 27.85 38.3 27.85 36.15 27.85 34.6 26.3 33.05 24.75 33.05 22.6 33.05 20.45 34.6 18.9 36.15 17.35 38.3 17.35 40.45 17.35 42 18.9 M20.05 15.6 Q20.05 17.75 18.5 19.3 16.95 20.85 14.8 20.85 12.65 20.85 11.1 19.3 9.55 17.75 9.55 15.6 9.55 13.45 11.1 11.9 12.65 10.35 14.8 10.35 16.95 10.35 18.5 11.9 20.05 13.45 20.05 15.6 M25 40.3 Q23.45 41.85 21.3 41.85 19.15 41.85 17.6 40.3 16.05 38.75 16.05 36.6 16.05 34.45 17.6 32.9 19.15 31.35 21.3 31.35 23.45 31.35 25 32.9 26.55 34.45 26.55 36.6 26.55 38.75 25 40.3"/>
            <path fill="none" stroke="#594b35" stroke-width="1" stroke-linecap="round" stroke-linejoin="round" d="M48.95 24.85 Q48.95 34.75 41.9 41.75 34.9 48.8 25 48.8 15.1 48.8 8.1 41.75 1.1 34.75 1.1 24.85 1.1 14.95 8.1 7.95 15.1 0.95 25 0.95 34.9 0.95 41.9 7.95 48.95 14.95 48.95 24.85"/>
        </g>
    </symbol>
    <symbol id="21" viewBox="0 0 50 50">
        <g id="21">
            <path stroke="none" fill="#594b35" d="M26.35 39.45 L26.35 49.05 21.95 49.05 21.95 39.45 26.35 39.45 M26.75 1.2 L26.75 10.8 22.35 10.8 22.35 1.2 26.75 1.2"/>
            <path fill="none" stroke="#594b35" stroke-width="1" stroke-linecap="round" stroke-linejoin="round" d="M41.9 8.2 Q48.95 15.2 48.95 25.1 48.95 35 41.9 42 34.9 49.05 25 49.05 15.1 49.05 8.1 42 1.1 35 1.1 25.1 1.1 15.2 8.1 8.2 15.1 1.2 25 1.2 34.9 1.2 41.9 8.2"/>
            <path stroke="none" fill="#594b35" d="M10.25 25.75 Q10.25 20.9 11.7 17 13.2 13.15 16.1 11.05 19.05 8.9 23.1 8.9 28.95 8.9 31.35 12.75 L31.45 12.75 31.45 9.65 36.6 9.65 36.6 20.8 31.45 20.8 Q31.3 17.35 29.3 15.4 27.25 13.55 24.1 13.55 20 13.55 18.2 17.15 16.35 20.75 16.35 26.25 16.35 31.1 18.4 34.25 20.5 37.35 24.6 37.35 27.5 37.35 29.4 35.3 31.4 33.2 31.45 29.7 L27.45 29.7 27.45 25.1 39.5 25.1 39.5 29.7 36.8 29.7 36.8 41.35 31.7 41.35 31.7 37.8 31.6 37.8 Q29.5 41.95 24.3 41.95 17.4 41.95 13.85 37.55 10.25 32.95 10.25 25.75"/>
        </g>
    </symbol>
    <symbol id="3" viewBox="0 0 50 50">
        <g id="3">
            <path fill="none" stroke="#594b35" stroke-width="1" stroke-linecap="round" stroke-linejoin="round" d="M13.45 15.15 L38.45 22.65 M13.45 16.65 L20.45 35.15"/>
            <path stroke="none" fill="#594b35" d="M37.7 18.15 Q39.85 18.15 41.4 19.7 42.95 21.25 42.95 23.4 42.95 25.55 41.4 27.1 39.85 28.65 37.7 28.65 35.55 28.65 34 27.1 32.45 25.55 32.45 23.4 32.45 21.25 34 19.7 35.55 18.15 37.7 18.15 M8.95 16.4 Q8.95 14.25 10.5 12.7 12.05 11.15 14.2 11.15 16.35 11.15 17.9 12.7 19.45 14.25 19.45 16.4 19.45 18.55 17.9 20.1 16.35 21.65 14.2 21.65 12.05 21.65 10.5 20.1 8.95 18.55 8.95 16.4 M25.95 37.4 Q25.95 39.55 24.4 41.1 22.85 42.65 20.7 42.65 18.55 42.65 17 41.1 15.45 39.55 15.45 37.4 15.45 35.25 17 33.7 18.55 32.15 20.7 32.15 22.85 32.15 24.4 33.7 25.95 35.25 25.95 37.4"/>
            <path fill="none" stroke="#594b35" stroke-width="1" stroke-linecap="round" stroke-linejoin="round" d="M24.9 1.25 Q34.8 1.25 41.8 8.25 48.85 15.25 48.85 25.15 48.85 35.05 41.8 42.05 34.8 49.1 24.9 49.1 15 49.1 8 42.05 1 35.05 1 25.15 1 15.25 8 8.25 15 1.25 24.9 1.25"/>
        </g>
    </symbol>
    <symbol id="4" viewBox="0 0 50 50">
        <g id="4">
            <path fill="none" stroke="#594b35" stroke-width="1" stroke-linecap="round" stroke-linejoin="round" d="M24.95 0.95 Q34.85 0.95 41.85 7.95 48.9 14.95 48.9 24.85 48.9 34.75 41.85 41.75 34.85 48.8 24.95 48.8 15.05 48.8 8.05 41.75 1.05 34.75 1.05 24.85 1.05 14.95 8.05 7.95 15.05 0.95 24.95 0.95"/>
            <path fill="none" stroke="#594b35" stroke-width="1" stroke-linecap="round" stroke-linejoin="round" d="M15.65 21 L18.75 41.8"/>
            <path fill="none" stroke="#594b35" stroke-width="1" stroke-linecap="round" stroke-linejoin="round" d="M41.65 17.85 Q40.1 19.9 37.55 20.25 36.3 20.45 35.1 20.25 34.45 20.7 33.7 20.75 L32.3 20.75 32 21.1 31.25 21.6 Q31.05 22.4 31.15 24.1 31.3 26.85 28.6 26.95 L27.6 26.9 Q29.55 29.65 30.35 32.5 30.75 34.05 30.75 35.35 L30.75 35.55 30.25 37.5 29.5 40.4 29.25 41.4 Q29 42.2 28.35 42.75 26.15 44.85 21.35 42.95 16.6 41.15 12.1 36.45 7.55 31.75 5.85 26.95 4.2 22.25 6.4 20.15 7.35 19.25 8.8 19.1 L9.35 19.1 13.3 18.65 17.35 19.05 Q20.3 20.05 23.1 22.25 L23.15 21.35 Q23.45 18.65 26.25 19 L28.75 19 29.25 18.3 29.8 17.9 Q29.6 16.75 30.35 15.6 L30.35 15.15 Q29.95 12.65 31.4 10.6 32.95 8.55 35.5 8.1 38.1 7.8 40.2 9.25 42.3 10.75 42.7 13.2 43.1 15.8 41.65 17.85 M40.35 13.55 Q40.15 12.05 38.9 11.2 37.65 10.3 36.1 10.55 34.65 10.75 33.7 11.95 33 13 33 14.25 34.15 14.15 35.15 14.85 36.3 15.65 36.55 16.95 L36.55 17.8 37.3 17.65 Q38.85 17.5 39.75 16.25 40.65 15.05 40.35 13.55 M9.35 19.1 L11.45 19.35 13.4 19.95 Q18.2 21.8 22.75 26.5 27.25 31.2 28.9 35.95 29.4 37.4 29.5 38.6 L30.25 37.5 M30.35 15.6 L30.4 15.55 Q31.25 14.45 32.65 14.2 L33 14.25 M29.8 17.9 L30.65 17.75 Q31.5 17.75 32.05 18.35 32.65 18.95 32.6 19.75 L32.3 20.75 M36.55 17.8 L35.9 19.45 35.1 20.25 M27.6 26.9 L25.4 24.35 23.1 22.25 M29.5 38.6 L29.5 40.4"/>
        </g>
    </symbol>
    <symbol id="5" viewBox="0 0 50 50">
        <g id="5">
            <path fill="none" stroke="#594b35" stroke-width="1" stroke-linecap="round" stroke-linejoin="round" d="M41.9 7.85 Q48.9 14.85 48.9 24.75 48.9 34.65 41.9 41.65 34.9 48.65 25 48.65 15.1 48.65 8.1 41.65 1.1 34.65 1.1 24.75 1.1 14.85 8.1 7.85 15.1 0.85 25 0.85 34.9 0.85 41.9 7.85"/>
            <path stroke="none" fill="#594b35" d="M26.6 13.15 L21.4 23.15 19.1 29.75 Q18 32.9 18 35.35 L18.25 38.2 Q18.45 39.75 19.85 39.75 21.3 39.75 22.55 38.05 23.8 36.8 24.85 34.15 L26.35 28.95 26.9 23.95 26.9 13.15 26.6 13.15 M37.55 16.5 Q37.55 25.05 38.7 32.1 39.55 37.65 40.85 42.55 39.65 43.25 37.45 44.95 36.55 45.65 32.25 47.15 L31.15 47.6 30.7 47.3 28 32.9 27.7 32.9 26.6 38.05 24.75 42.9 Q23 45.4 21.4 46.4 19.65 47.4 17.35 47.6 L15.4 46.9 Q14.25 46.5 13.25 45.25 12.05 42.8 12.05 39.75 12.05 33.5 14.4 27.85 16.45 22.55 19.4 17.7 L24.55 8.6 Q26.9 4.4 26.9 0.8 L28.65 0.65 29.35 0.95 Q32.65 2.4 35 2.65 L37.55 3.75 37.55 16.5 M42 46.7 L41.75 46.7 41.95 46.55 42 46.7"/>
        </g>
    </symbol>
    <symbol id="6" viewBox="0 0 50 50">
        <g id="6">
            <path fill="none" stroke="#594b35" stroke-width="1" stroke-linecap="round" stroke-linejoin="round" d="M16.5 14.6 L16.5 19.55 24.7 19.55 24.85 6.25 38.65 19.55 24.7 19.55 24.7 33.5 31.9 33.5 31.9 29.25 M31.9 33.5 L38.75 33.5 M24.7 33.5 L24.7 43.7 11.25 33.5 24.7 33.5 M31.9 38 L31.9 33.5 M11.05 19.55 L16.5 19.55 16.5 24.05"/>
            <path fill="none" stroke="#594b35" stroke-width="1" stroke-linecap="round" stroke-linejoin="round" d="M41.85 8.25 Q48.9 15.25 48.9 25.15 48.9 35.05 41.85 42.05 34.85 49.1 24.95 49.1 15.05 49.1 8.05 42.05 1.05 35.05 1.05 25.15 1.05 15.25 8.05 8.25 15.05 1.25 24.95 1.25 34.85 1.25 41.85 8.25"/>
        </g>
    </symbol>
    <symbol id="7" viewBox="0 0 50 50">
        <g id="7">
            <path fill="none" stroke="#594b35" stroke-width="1" stroke-linecap="round" stroke-linejoin="round" d="M41.75 41.95 Q34.75 49 24.85 49 14.95 49 7.95 41.95 0.95 34.95 0.95 25.05 0.95 15.15 7.95 8.15 11.25 4.85 15.2 3.1 19.65 1.15 24.85 1.15 30.1 1.15 34.5 3.1 38.45 4.85 41.75 8.15 48.8 15.15 48.8 25.05 48.8 34.95 41.75 41.95 M39.9 20.6 L38.5 21.95 38.9 22.05"/>
            <path stroke="none" fill="#594b35" d="M41.85 19.1 Q43.4 20.65 43.4 22.8 43.4 24.95 41.85 26.5 40.3 28.05 38.15 28.05 36 28.05 34.45 26.5 32.9 24.95 32.9 22.8 32.9 20.65 34.45 19.1 36 17.55 38.15 17.55 40.3 17.55 41.85 19.1 M18.35 12.1 Q19.9 13.65 19.9 15.8 19.9 17.95 18.35 19.5 16.8 21.05 14.65 21.05 12.5 21.05 10.95 19.5 9.4 17.95 9.4 15.8 9.4 13.65 10.95 12.1 12.5 10.55 14.65 10.55 16.8 10.55 18.35 12.1 M21.15 42.05 Q19 42.05 17.45 40.5 15.9 38.95 15.9 36.8 15.9 34.65 17.45 33.1 19 31.55 21.15 31.55 23.3 31.55 24.85 33.1 26.4 34.65 26.4 36.8 26.4 38.95 24.85 40.5 23.3 42.05 21.15 42.05"/>
            <path fill="none" stroke="#594b35" stroke-width="1" stroke-linecap="round" stroke-linejoin="round" d="M34.5 15.05 Q38.45 19 38.45 24.6 38.45 30.2 34.5 34.15 30.55 38.1 24.95 38.1 19.35 38.1 15.4 34.15 11.45 30.2 11.45 24.6 11.45 19 15.4 15.05 19.35 11.1 24.95 11.1 30.55 11.1 34.5 15.05"/>
        </g>
    </symbol>
    <symbol id="8" viewBox="0 0 50 50">
        <g id="8">
            <path stroke="none" fill="#594b35" d="M15.3 18.6 L13.8 18.6 13.8 23.65 16.6 23.65 16.6 25.9 Q17.7 24.9 18.65 25.9 L18.65 22.7 20.9 22.7 20.9 13.2 19.2 13.2 19.2 8.15 21.65 8.15 21.65 10.2 Q22.6 11.1 23.5 10.2 L23.5 8.15 25.95 8.15 25.95 10.2 Q26.9 11.15 27.8 10.2 L27.8 8.15 30.2 8.15 30.2 13.2 28.55 13.2 28.55 22.7 30.95 22.7 30.95 25.9 Q31.9 24.75 33.2 25.9 L33.2 23.65 35.85 23.65 35.85 18.4 34.35 18.4 34.35 14.5 36.55 14.5 36.55 16 Q37.6 16.85 38.45 16 L38.45 14.5 40.3 14.5 40.3 16 Q41.55 16.85 42.2 16 L42.2 14.5 44.05 14.5 44.05 18.4 42.55 18.4 42.55 23.65 46.1 23.65 46.1 25.9 Q47.45 24.7 48.65 25.9 L48.65 26.2 27.1 26.2 27.1 25.95 Q27.1 24.95 26.4 24.25 25.7 23.55 24.7 23.55 23.7 23.55 23 24.25 22.3 24.95 22.3 25.95 L22.3 26.2 1.1 26.2 1.1 25.9 Q2.5 24.9 3.7 25.9 L3.7 23.65 7.05 23.65 7.05 18.6 5.55 18.6 5.55 14.7 7.6 14.7 7.6 16 Q8.65 16.7 9.5 16 L9.5 14.7 11.75 14.7 11.75 16 Q12.75 16.75 13.6 16 L13.6 14.7 15.3 14.7 15.3 18.6 M5.5 38.9 Q4.45 37.6 3.95 36.4 L20.15 36.4 20.15 35.5 3.65 35.5 2.7 33.15 47.75 33.15 46.75 35.3 46.6 35.55 29.05 35.55 29.05 36.45 46.05 36.45 44.5 38.95 29.05 38.95 29.05 39.85 43.9 39.85 41.65 42.2 29.05 42.2 29.05 43.1 40.6 43.1 39.15 44.15 36.9 45.7 29.05 45.7 29.05 46.6 34.95 46.6 34.55 46.9 33.3 47.6 Q32.15 48 31.85 48.15 L28.5 48.9 28.45 35.95 Q24.45 33.7 20.85 35.95 L20.8 48.9 Q24.45 47.55 28.5 48.9 L28.2 48.95 26.85 49.15 22 49.15 18.95 48.7 17 48 15 46.95 14.4 46.55 20.15 46.55 20.15 45.65 12.15 45.65 Q12.1 45.05 11.55 44.65 L9.75 43.45 9.3 43.05 20.15 43.05 20.15 42.15 8.5 42.15 7.35 40.85 6.3 39.8 20.15 39.8 20.15 38.9 5.5 38.9 M1.35 27.85 L1.3 27.2 22.65 27.2 23 27.65 Q23.7 28.35 24.7 28.35 25.7 28.35 26.4 27.65 L26.75 27.2 48.85 27.2 48.75 29.3 1.7 29.3 1.35 27.85 M1.85 30.35 L1.85 30.15 48.65 30.15 48.5 31.1 Q48.2 31.35 48.05 31.85 L47.9 32.3 2.4 32.3 Q1.95 31.1 1.85 30.35 M11.15 18.4 Q10.2 17.45 9.25 18.4 L9.25 21.95 11.15 21.95 11.15 18.4 M40.1 18.4 Q39.25 17.35 38.2 18.4 L38.2 21.95 40.1 21.95 40.1 18.4 M25.75 13.4 Q24.75 12.5 23.7 13.4 L23.7 17.3 25.75 17.3 25.75 13.4"/>
            <path fill="none" stroke="#594b35" stroke-width="1" stroke-linecap="round" stroke-linejoin="round" d="M41.9 8.15 Q48.95 15.15 48.95 25.05 48.95 34.95 41.9 41.95 34.9 49 25 49 15.1 49 8.1 41.95 1.1 34.95 1.1 25.05 1.1 15.15 8.1 8.15 15.1 1.15 25 1.15 34.9 1.15 41.9 8.15"/>
        </g>
    </symbol>
    <symbol id="9" viewBox="0 0 50 50">
        <g id="9">
            <path stroke="none" fill="#594b35" d="M41.8 41.55 Q34.85 48.55 24.95 48.55 15.05 48.55 8.05 41.55 1.1 34.6 1.1 24.7 1.1 14.8 8.05 7.8 L9.95 6.1 Q16.35 0.85 24.95 0.85 33.55 0.85 39.95 6.1 L41.8 7.8 Q48.8 14.8 48.8 24.7 48.8 34.6 41.8 41.55"/>
            <path stroke="none" fill="#ffffff" d="M6.9 8.95 L14.65 8.95 14.65 9.9 Q11.65 10 11.65 11.7 11.65 12.6 12.9 15.8 L19.65 32.5 25.1 19.45 22.4 12.8 Q21.45 10.85 20.4 10.35 19.6 9.9 18 9.9 L18 8.95 34.65 8.95 34.65 9.9 32.85 10 Q31.75 10.2 31.3 10.75 31 11.2 31 11.75 31 12.5 32.15 15.3 L38.4 31.6 44.05 16.85 Q45.3 13.55 45.35 12.35 46.2 13.65 46.85 15.1 L35.65 44.1 34.7 44.1 26.1 21.95 16.75 44.1 15.8 44.1 4.5 16.1 3.55 13.75 Q4.9 11.2 6.9 8.95"/>
            <path fill="none" stroke="#ffffff" stroke-width="1" stroke-linecap="round" stroke-linejoin="round" d="M6.9 8.95 Q4.9 11.2 3.55 13.75 M46.85 15.1 Q46.2 13.65 45.35 12.35"/>
            <path fill="none" stroke="#594b35" stroke-width="1" stroke-linecap="round" stroke-linejoin="round" d="M24.85 0.85 Q34.75 0.85 41.75 7.85 48.8 14.85 48.8 24.75 48.8 34.65 41.75 41.65 34.75 48.7 24.85 48.7 14.95 48.7 7.95 41.65 0.95 34.65 0.95 24.75 0.95 14.85 7.95 7.85 14.95 0.85 24.85 0.85"/>
        </g>
    </symbol>
</svg>